<svg id="visual" viewBox="0 0 960 540" width="960" height="540" xmlns="http://www.w3.org/2000/svg" xmlns:xlink="http://www.w3.org/1999/xlink" version="1.1"><rect x="0" y="0" width="960" height="540" fill="#2a80ff"></rect><path d="M0 376L40 368.3C80 360.7 160 345.3 240 310.3C320 275.3 400 220.7 480 223.5C560 226.3 640 286.7 720 289.8C800 293 880 239 920 212L960 185L960 0L920 0C880 0 800 0 720 0C640 0 560 0 480 0C400 0 320 0 240 0C160 0 80 0 40 0L0 0Z" fill="#fcfcfc" stroke-linecap="round" stroke-linejoin="miter"></path></svg>